<svg xmlns="http://www.w3.org/2000/svg" viewBox="0 0 91.25 55.15"><defs><style>.cls-1{fill:#fff;}.cls-2{fill:#fff100;}.cls-3{fill:#0046be;}</style></defs><g id="Layer_2" data-name="Layer 2"><g id="Layer_1-2" data-name="Layer 1"><path class="cls-1" d="M0,19.26V1.14H6.51a9.19,9.19,0,0,1,5.32,1.28,4.26,4.26,0,0,1,1.82,3.72A4.3,4.3,0,0,1,13,8.54,3.81,3.81,0,0,1,11.1,10a3.83,3.83,0,0,1,2.18,1.39A4,4,0,0,1,14,13.89a4.77,4.77,0,0,1-1.69,4,8,8,0,0,1-5,1.37ZM4.37,8.69H6.65a3.27,3.27,0,0,0,2-.52A1.89,1.89,0,0,0,9.3,6.66,2,2,0,0,0,8.64,5a3.59,3.59,0,0,0-2.13-.5H4.37Zm0,2.86V15.9H7.23a2.75,2.75,0,0,0,1.82-.54,1.92,1.92,0,0,0,.63-1.53,2,2,0,0,0-2.25-2.28Z"/><path class="cls-1" d="M22.76,19.51a6.92,6.92,0,0,1-5-1.85,6.38,6.38,0,0,1-1.92-4.81V12.5a8.3,8.3,0,0,1,.77-3.65,5.56,5.56,0,0,1,2.23-2.44,6.71,6.71,0,0,1,3.48-.87A5.82,5.82,0,0,1,26.79,7.3a6.91,6.91,0,0,1,1.65,4.91v1.63H20.1a3,3,0,0,0,1,1.78,2.94,2.94,0,0,0,2,.65,3.76,3.76,0,0,0,3.11-1.39l1.92,2.26a5.51,5.51,0,0,1-2.22,1.73A7.64,7.64,0,0,1,22.76,19.51ZM22.29,8.78c-1.23,0-2,.81-2.19,2.44h4.23v-.33a2.05,2.05,0,0,0-.51-1.56A2,2,0,0,0,22.29,8.78Z"/><path class="cls-1" d="M37.17,15.47a1,1,0,0,0-.56-.85,8.52,8.52,0,0,0-2.12-.68A9.5,9.5,0,0,1,31.9,13a4.41,4.41,0,0,1-1.56-1.38,3.31,3.31,0,0,1-.53-1.85,3.73,3.73,0,0,1,1.53-3.06,6.3,6.3,0,0,1,4-1.2,7,7,0,0,1,4.28,1.21,3.75,3.75,0,0,1,1.61,3.17H37c0-1.08-.57-1.61-1.71-1.61a1.67,1.67,0,0,0-1.1.36,1.15,1.15,0,0,0-.45.92,1.05,1.05,0,0,0,.55.91,5.15,5.15,0,0,0,1.74.57,16.18,16.18,0,0,1,2.11.53q3,1.05,3,3.75a3.53,3.53,0,0,1-1.64,3,7.17,7.17,0,0,1-4.23,1.16,7.23,7.23,0,0,1-3.09-.63,5.07,5.07,0,0,1-2.12-1.69,3.86,3.86,0,0,1-.76-2.25H33.3a1.62,1.62,0,0,0,.63,1.36,2.52,2.52,0,0,0,1.53.43,2,2,0,0,0,1.29-.35A1.12,1.12,0,0,0,37.17,15.47Z"/><path class="cls-1" d="M48.06,2.44V5.79h2.22V8.7H48.06v6.16a1.59,1.59,0,0,0,.28,1.06,1.45,1.45,0,0,0,1.08.3,6.27,6.27,0,0,0,1-.07v3a7.82,7.82,0,0,1-2.37.36,4.41,4.41,0,0,1-3.2-1,4.19,4.19,0,0,1-1-3.1V8.7H42.15V5.79h1.72V2.44Z"/><path class="cls-1" d="M0,49.84V31.72H6.51A9.27,9.27,0,0,1,11.83,33a4.29,4.29,0,0,1,1.82,3.73,4.35,4.35,0,0,1-.64,2.4A3.86,3.86,0,0,1,11.1,40.6,3.83,3.83,0,0,1,13.28,42,4,4,0,0,1,14,44.48a4.77,4.77,0,0,1-1.69,4,8,8,0,0,1-5,1.36ZM4.37,39.28H6.65a3.26,3.26,0,0,0,2-.53,1.87,1.87,0,0,0,.61-1.51,2,2,0,0,0-.66-1.65,3.51,3.51,0,0,0-2.13-.51H4.37Zm0,2.86v4.34H7.23a2.75,2.75,0,0,0,1.82-.54,1.9,1.9,0,0,0,.63-1.52,2,2,0,0,0-2.25-2.28Z"/><path class="cls-1" d="M15.72,43a8,8,0,0,1,.78-3.59A5.67,5.67,0,0,1,18.75,37a6.74,6.74,0,0,1,3.45-.85A6.18,6.18,0,0,1,27,38a7.2,7.2,0,0,1,1.74,5.1v.15a6.93,6.93,0,0,1-1.75,5,6.16,6.16,0,0,1-4.73,1.85,6.27,6.27,0,0,1-4.62-1.72,6.75,6.75,0,0,1-1.88-4.67Zm4.19.26A5,5,0,0,0,20.5,46a1.94,1.94,0,0,0,1.73.87c1.49,0,2.25-1.15,2.29-3.45V43c0-2.42-.77-3.63-2.32-3.63-1.4,0-2.16,1-2.28,3.13Z"/><path class="cls-1" d="M38.58,48.39a4.35,4.35,0,0,1-3.6,1.7,4.24,4.24,0,0,1-3.35-1.29,5.39,5.39,0,0,1-1.14-3.7V36.38h4.2v8.75a1.51,1.51,0,0,0,1.68,1.73,2.19,2.19,0,0,0,2.05-1V36.38h4.22V49.84H38.71Z"/><path class="cls-1" d="M44.44,43a9.08,9.08,0,0,1,.68-3.61A5.43,5.43,0,0,1,47,37,5.1,5.1,0,0,1,50,36.13a4,4,0,0,1,3.28,1.42l.15-1.17h3.81V49.33a5.64,5.64,0,0,1-.83,3.1,5.34,5.34,0,0,1-2.39,2,8.82,8.82,0,0,1-3.64.71,7.63,7.63,0,0,1-2.86-.56,5.22,5.22,0,0,1-2.13-1.46l1.76-2.47a3.83,3.83,0,0,0,3.09,1.39c1.85,0,2.78-1,2.78-2.87v-.42a3.92,3.92,0,0,1-3.05,1.33,4.88,4.88,0,0,1-4-1.88,7.84,7.84,0,0,1-1.52-5.05Zm4.21.26a4.81,4.81,0,0,0,.62,2.62,2,2,0,0,0,1.74,1A2.23,2.23,0,0,0,53,46V40.29a2.15,2.15,0,0,0-2-.93,2,2,0,0,0-1.76,1A5.45,5.45,0,0,0,48.65,43.27Z"/><path class="cls-1" d="M63.7,37.82a4.6,4.6,0,0,1,6.79-.37,5.92,5.92,0,0,1,1.16,3.89v8.5H67.44v-8.4A2.36,2.36,0,0,0,67,39.87a1.87,1.87,0,0,0-1.48-.51,2,2,0,0,0-1.83.83v9.65H59.5V30.73h4.2Z"/><path class="cls-1" d="M78.87,33v3.35h2.21v2.91H78.87v6.16a1.59,1.59,0,0,0,.27,1.06,1.45,1.45,0,0,0,1.08.3,6.06,6.06,0,0,0,1-.08v3a7.76,7.76,0,0,1-2.36.36,4.39,4.39,0,0,1-3.2-1,4.17,4.17,0,0,1-1-3.1V39.29H73V36.38h1.71V33Z"/><rect class="cls-2" x="66.97" y="3.15" width="22.56" height="14.64" transform="translate(0.64 24.92) rotate(-18.16)"/><path class="cls-2" d="M62.07,18.09l7.75,2.85L65.25,7,60.7,13.92Z"/><circle class="cls-3" cx="64.95" cy="14.84" r="1.11"/></g></g></svg>